<svg xmlns="http://www.w3.org/2000/svg" viewBox="0 0 977.859 180.532"><defs><style>.cls-1,.cls-2{fill:none;stroke-miterlimit:10;stroke-width:15.963px;}.cls-1{stroke:#003778;}.cls-2{stroke:#fcb80a;}.cls-3{fill:#023676;}.cls-4{fill:#003778;}</style></defs><g id="Layer_1" data-name="Layer 1"><polygon class="cls-1" points="169.97 90.266 91.623 149.205 13.277 90.266 91.623 31.327 169.97 90.266"/><polygon class="cls-1" points="413.862 90.266 335.515 149.205 257.168 90.266 335.515 31.327 413.862 90.266"/><polygon class="cls-2" points="314.602 90.266 207.889 170.544 101.176 90.266 207.889 9.988 314.602 90.266"/><polygon class="cls-3" points="243.82 90.266 269.741 90.266 335.515 139.078 322.072 149.205 243.82 90.266"/><polygon class="cls-3" points="166.885 82.844 159.594 107.718 94.252 157.106 88.315 141.357 166.885 82.844"/><path class="cls-4" d="M510.555,555.758V510.705h12.252v44.757c0,15.512-8.3,25.589-23.515,25.589-9.287,0-17.29-5.632-22.131-15.907l7.212-4.446c3.754,6.323,8.5,9.88,14.03,9.88C506.5,570.578,510.555,564.749,510.555,555.758Z" transform="translate(-33.919 -473.48)"/><path class="cls-4" d="M583.373,534.021c-2.272-9.089-9.288-13.93-17.093-13.93-10.472,0-19.266,8.793-19.266,25.194,0,16.2,9.188,25.293,20.452,25.293,9.781,0,17.093-7.213,17.093-17.587h-17.39v-9.484h29.245v5.73c0,21.538-12.448,31.814-28.85,31.814-19.661,0-32.9-14.722-32.9-35.766,0-21.341,12.647-35.766,31.715-35.766,16.006,0,26.577,10.375,29.245,24.5Z" transform="translate(-33.919 -473.48)"/><path class="cls-4" d="M684.149,534.021c-2.272-9.089-9.287-13.93-17.092-13.93-10.473,0-19.266,8.793-19.266,25.194,0,16.2,9.188,25.293,20.451,25.293,9.781,0,17.093-7.213,17.093-17.587H667.946v-9.484h29.245v5.73c0,21.538-12.449,31.814-28.849,31.814-19.662,0-32.9-14.722-32.9-35.766,0-21.341,12.647-35.766,31.716-35.766,16,0,26.577,10.375,29.244,24.5Z" transform="translate(-33.919 -473.48)"/><path class="cls-4" d="M709.937,510.705h12.152V569.59H754.6v10.275H709.937Z" transform="translate(-33.919 -473.48)"/><path class="cls-4" d="M791.251,581.051c-20.057,0-31.814-15.512-31.814-35.766,0-20.155,11.757-35.766,31.814-35.766,19.957,0,31.715,15.611,31.715,35.766C822.966,565.539,811.208,581.051,791.251,581.051Zm0-10.473c11.757,0,19.364-9.781,19.364-25.293s-7.607-25.194-19.364-25.194c-11.856,0-19.464,9.682-19.464,25.194S779.4,570.578,791.251,570.578Z" transform="translate(-33.919 -473.48)"/><path class="cls-4" d="M834.822,510.705h24.7c15.611,0,23.712,7.509,23.712,18.574,0,6.521-3.458,12.251-9.88,14.129,8.695,1.877,13.338,8.2,13.338,16.4,0,12.251-8.4,20.056-25.687,20.056H834.822Zm23.614,28.652c8.5,0,13.042-3.557,13.042-9.584,0-6.421-4.545-9.188-13.042-9.188h-11.56v18.772Zm1.285,9.682H846.876v21.045h12.845c9.978,0,14.72-3.655,14.72-10.571C874.441,552.794,869.7,549.039,859.721,549.039Z" transform="translate(-33.919 -473.48)"/><path class="cls-4" d="M932.242,510.705c8.4,23.021,16.895,46.14,25.392,69.16H944.4c-1.779-5.335-3.657-10.671-5.534-16.006H911l-5.533,16.006H892.326c8.4-23.02,16.9-46.139,25.392-69.16Zm-17.883,43.077H935.6l-10.671-31.123C921.473,533.034,917.817,543.408,914.359,553.782Z" transform="translate(-33.919 -473.48)"/><path class="cls-4" d="M967.119,510.705h12.152V569.59h32.506v10.275H967.119Z" transform="translate(-33.919 -473.48)"/><path class="cls-4" d="M557.745,616.1c0-2.3-1.3-3.2-6.047-4.5-5.651-1.512-7.631-4.32-7.631-7.739,0-3.96,3.024-6.8,8.244-6.8,5.974,0,8.71,3.059,9.322,7.667h-4.571a4.084,4.084,0,0,0-4.428-3.923c-2.736,0-4.068,1.223-4.068,2.951,0,1.764,1.332,3.168,5.184,4.283,5.831,1.656,8.531,3.42,8.531,7.776s-3.42,7.306-9.179,7.306c-4.032,0-7.164-1.943-9.575-5.579l2.411-1.907c2.052,2.483,4.356,3.743,7.056,3.743C556.018,619.374,557.745,618.006,557.745,616.1Z" transform="translate(-33.919 -473.48)"/><path class="cls-4" d="M566.566,597.488h16.271V601.2H570.994v6.7h10.583v3.67H570.994v7.452h12.167v3.672H566.566Z" transform="translate(-33.919 -473.48)"/><path class="cls-4" d="M603.9,605.983a6.311,6.311,0,0,0-6.227-5.075c-3.815,0-7.019,3.2-7.019,9.179,0,5.9,3.348,9.215,7.452,9.215a6.1,6.1,0,0,0,6.226-6.407h-6.335v-3.456h10.654v2.088c0,7.847-4.535,11.59-10.51,11.59-7.163,0-11.987-5.363-11.987-13.03,0-7.775,4.608-13.03,11.555-13.03a10.434,10.434,0,0,1,10.654,8.926Z" transform="translate(-33.919 -473.48)"/><path class="cls-4" d="M613.294,612.679V597.488h4.428v15.191c0,4.212,1.835,6.623,5.974,6.623,4.1,0,5.94-2.411,5.94-6.623V597.488h4.427v15.191c0,6.947-4.032,10.438-10.367,10.438C617.541,623.117,613.294,619.626,613.294,612.679Z" transform="translate(-33.919 -473.48)"/><path class="cls-4" d="M652.748,612.751l6.8,9.935h-4.9l-6.155-9.324h-4.463v9.324h-4.428v-25.2h8.784c5.9,0,9.61,2.952,9.61,7.955A7.3,7.3,0,0,1,652.748,612.751Zm-4.464-11.627h-4.247v8.6h4.247c3.492,0,5.22-1.621,5.22-4.285S651.776,601.124,648.284,601.124Z" transform="translate(-33.919 -473.48)"/><path class="cls-4" d="M667.616,597.488v25.2h-4.463v-25.2Z" transform="translate(-33.919 -473.48)"/><path class="cls-4" d="M673.341,597.488h8.711c7.559,0,12.094,4.968,12.094,12.6,0,7.7-4.535,12.6-12.094,12.6h-8.711Zm8.459,21.454c4.859,0,7.846-3.059,7.846-8.855,0-5.759-2.987-8.818-7.846-8.818h-4.031v17.673Z" transform="translate(-33.919 -473.48)"/><path class="cls-4" d="M710.42,597.488c3.059,8.388,6.154,16.811,9.25,25.2h-4.823c-.648-1.944-1.332-3.888-2.016-5.832h-10.15l-2.016,5.832h-4.788c3.06-8.387,6.155-16.81,9.251-25.2ZM703.9,613.183h7.74l-3.888-11.339C706.5,605.624,705.164,609.4,703.9,613.183Z" transform="translate(-33.919 -473.48)"/><path class="cls-4" d="M723.129,597.488h8.711c7.559,0,12.095,4.968,12.095,12.6,0,7.7-4.536,12.6-12.095,12.6h-8.711Zm8.459,21.454c4.859,0,7.847-3.059,7.847-8.855,0-5.759-2.988-8.818-7.847-8.818h-4.031v17.673Z" transform="translate(-33.919 -473.48)"/><path class="cls-4" d="M767.444,613.65h-3.923v9.036h-4.428v-25.2h8.351c6.047,0,9.754,2.7,9.754,8.1C777.2,610.951,773.491,613.65,767.444,613.65Zm-.252-12.49h-3.671v8.819h3.671c3.635,0,5.471-1.368,5.471-4.391C772.663,602.528,770.827,601.16,767.192,601.16Z" transform="translate(-33.919 -473.48)"/><path class="cls-4" d="M794.3,612.751l6.8,9.935h-4.9l-6.155-9.324h-4.463v9.324H781.16v-25.2h8.783c5.9,0,9.611,2.952,9.611,7.955A7.3,7.3,0,0,1,794.3,612.751Zm-4.464-11.627h-4.247v8.6h4.247c3.492,0,5.22-1.621,5.22-4.285S793.327,601.124,789.835,601.124Z" transform="translate(-33.919 -473.48)"/><path class="cls-4" d="M809.167,597.488v25.2H804.7v-25.2Z" transform="translate(-33.919 -473.48)"/><path class="cls-4" d="M822.054,622.686l-9.251-25.2h4.716l7.163,20.158,7.163-20.158H836.6l-9.25,25.2Z" transform="translate(-33.919 -473.48)"/><path class="cls-4" d="M850.17,597.488c3.059,8.388,6.154,16.811,9.25,25.2H854.6c-.648-1.944-1.332-3.888-2.016-5.832h-10.15l-2.016,5.832h-4.788c3.06-8.387,6.155-16.81,9.251-25.2Zm-6.516,15.695h7.74l-3.888-11.339C846.246,605.624,844.914,609.4,843.654,613.183Z" transform="translate(-33.919 -473.48)"/><path class="cls-4" d="M862.879,597.488h8.711c7.559,0,12.095,4.968,12.095,12.6,0,7.7-4.536,12.6-12.095,12.6h-8.711Zm8.459,21.454c4.859,0,7.847-3.059,7.847-8.855,0-5.759-2.988-8.818-7.847-8.818h-4.031v17.673Z" transform="translate(-33.919 -473.48)"/><path class="cls-4" d="M899.958,597.488c3.06,8.388,6.154,16.811,9.25,25.2h-4.823c-.648-1.944-1.332-3.888-2.016-5.832h-10.15l-2.016,5.832h-4.788c3.06-8.387,6.155-16.81,9.251-25.2Zm-6.516,15.695h7.74l-3.888-11.339C896.034,605.624,894.7,609.4,893.442,613.183Z" transform="translate(-33.919 -473.48)"/></g></svg>