<svg xmlns="http://www.w3.org/2000/svg" viewBox="0 0 979.737 180.532"><defs><style>.cls-1,.cls-2{fill:none;stroke-miterlimit:10;stroke-width:15.963px;}.cls-1{stroke:#003778;}.cls-2{stroke:#fcb80a;}.cls-3{fill:#023676;}.cls-4{font-size:98.803px;}.cls-4,.cls-6{fill:#003778;font-family:ArticoMedium, Artico;}.cls-5{letter-spacing:-0.013em;}.cls-6{font-size:36px;}.cls-7{letter-spacing:-0.015em;}.cls-8{letter-spacing:-0.065em;}</style></defs><g id="Layer_1" data-name="Layer 1"><polygon class="cls-1" points="169.97 90.266 91.623 149.205 13.277 90.266 91.623 31.327 169.97 90.266"/><polygon class="cls-1" points="413.862 90.266 335.515 149.205 257.168 90.266 335.515 31.327 413.862 90.266"/><polygon class="cls-2" points="314.602 90.266 207.889 170.544 101.176 90.266 207.889 9.988 314.602 90.266"/><polygon class="cls-3" points="243.82 90.266 269.741 90.266 335.515 139.078 322.072 149.205 243.82 90.266"/><polygon class="cls-3" points="166.885 82.844 159.594 107.718 94.252 157.106 88.315 141.357 166.885 82.844"/><text class="cls-4" transform="translate(438.006 106.385)">JG G<tspan class="cls-5" x="230.405" y="0">L</tspan><tspan x="283.265" y="0">OBAL</tspan></text><text class="cls-6" transform="translate(507.845 149.205)">SEGURI<tspan class="cls-7" x="128.806" y="0">D</tspan><tspan x="153.429" y="0">AD PRI</tspan><tspan class="cls-8" x="270.355" y="0">V</tspan><tspan x="293.179" y="0">A</tspan><tspan class="cls-7" x="318.343" y="0">D</tspan><tspan x="342.966" y="0">A</tspan></text></g></svg>